<?xml version="1.0" encoding="UTF-8"?><svg id="Camada_1" xmlns="http://www.w3.org/2000/svg" viewBox="0 0 1133.86 1133.86"><defs><style>.cls-1{fill:#00847a;}</style></defs><rect class="cls-1" x="604.98" y="518.7" width="1.27" height="61.39"/><rect class="cls-1" x="595.76" y="518.7" width="1.27" height="61.39"/><rect class="cls-1" x="586.55" y="518.7" width="1.27" height="61.39"/><rect class="cls-1" x="577.33" y="518.7" width="1.27" height="61.39"/><rect class="cls-1" x="568.11" y="518.7" width="1.27" height="61.39"/><rect class="cls-1" x="558.9" y="518.7" width="1.27" height="61.39"/><rect class="cls-1" x="549.68" y="518.7" width="1.27" height="61.39"/><rect class="cls-1" x="540.46" y="518.7" width="1.27" height="61.39"/><rect class="cls-1" x="531.25" y="518.7" width="1.27" height="61.39"/><rect class="cls-1" x="522.03" y="518.7" width="1.27" height="61.39"/><polygon class="cls-1" points="504.87 575.05 504.87 513.94 503.88 513.54 503.6 513.54 503.6 574.53 504.87 575.05"/><polygon class="cls-1" points="495.65 510.23 494.56 509.79 494.38 509.72 494.38 570.72 495.65 571.24 495.65 510.23"/><polygon class="cls-1" points="486.43 567.44 486.43 506.52 485.16 506 485.16 566.91 486.43 567.44"/><polygon class="cls-1" points="477.22 563.63 477.22 502.81 475.95 502.29 475.95 563.1 477.22 563.63"/><polygon class="cls-1" points="468 559.82 468 499.09 466.73 498.58 466.73 559.29 468 559.82"/><polygon class="cls-1" points="458.78 556.01 458.78 495.38 457.51 494.87 457.51 555.48 458.78 556.01"/><polygon class="cls-1" points="449.57 552.2 449.57 491.67 448.73 491.34 448.3 491.34 448.3 551.68 449.57 552.2"/><polygon class="cls-1" points="513.53 517.42 512.81 517.14 512.81 578.34 513.98 578.82 514.08 578.82 514.08 517.42 513.53 517.42"/><polygon class="cls-1" points="609.66 692.55 609.66 693.87 610.89 693.87 610.89 693.12 609.66 692.55"/><polygon class="cls-1" points="600.7 688.38 600.7 693.87 601.93 693.87 601.93 688.96 600.7 688.38"/><polygon class="cls-1" points="591.73 684.22 591.73 693.87 592.96 693.87 592.96 684.79 591.73 684.22"/><polygon class="cls-1" points="582.77 680.06 582.77 693.87 584 693.87 584 680.63 582.77 680.06"/><polygon class="cls-1" points="573.8 675.89 573.8 693.87 575.04 693.87 575.04 676.47 573.8 675.89"/><polygon class="cls-1" points="582.77 634.61 582.77 635.63 584 636.22 584 634.61 582.77 634.61"/><polygon class="cls-1" points="591.73 634.61 591.73 639.9 592.96 640.49 592.96 634.61 591.73 634.61"/><polygon class="cls-1" points="600.7 634.61 600.7 644.17 601.93 644.76 601.93 634.61 600.7 634.61"/><polygon class="cls-1" points="609.66 634.61 609.66 648.45 610.89 649.03 610.89 634.61 609.66 634.61"/><polygon class="cls-1" points="618.62 634.61 618.62 652.72 619.86 653.31 619.86 634.61 618.62 634.61"/><polygon class="cls-1" points="627.59 634.61 627.59 656.99 628.82 657.58 628.82 634.61 627.59 634.61"/><polygon class="cls-1" points="636.55 634.61 636.55 661.26 637.79 661.85 637.79 634.61 636.55 634.61"/><polygon class="cls-1" points="645.52 634.61 645.52 665.53 646.75 666.12 646.75 634.61 645.52 634.61"/><polygon class="cls-1" points="654.48 634.61 654.48 669.8 655.72 670.39 655.72 634.61 654.48 634.61"/><polygon class="cls-1" points="664.68 634.61 663.45 634.61 663.45 674.08 664.68 674.67 664.68 634.61"/><polygon class="cls-1" points="673.65 634.61 672.41 634.61 672.41 678.35 673.61 678.92 673.65 678.94 673.65 634.61"/><polygon class="cls-1" points="681.38 634.61 681.38 682.62 682.61 683.21 682.61 634.61 681.38 634.61"/><polygon class="cls-1" points="509.47 470.22 509.47 511.33 442.42 481.45 442.42 439.55 509.47 470.22"/><polygon class="cls-1" points="509.47 584.87 509.47 691.99 442.42 655.8 442.42 554.21 509.47 584.87"/><polygon class="cls-1" points="691.44 694.27 566.14 629.97 688.43 629.97 688.43 585.75 688.43 471.11 673.03 471.11 514.4 471.11 514.4 512.66 613.64 512.66 613.64 585.75 562.99 585.75 514.4 585.75 514.4 585.76 514.4 629.89 514.4 629.97 514.4 693.69 514.4 694.27 562.99 694.27 562.99 664.52 620.95 694.27 621.59 694.27 621.65 694.31 680.73 694.31 680.66 694.27 691.44 694.27"/></svg>