<?xml version="1.0" encoding="UTF-8"?><svg id="Camada_1" xmlns="http://www.w3.org/2000/svg" viewBox="0 0 1133.86 1133.86"><defs><style>.cls-1{fill:#00847a;}.cls-2{fill:#fdf2ec;}</style></defs><path class="cls-1" d="M463.24,759.26v-51.44h3.38v51.44h-3.38Z"/><path class="cls-1" d="M474.04,759.26v-36.15h3.23v4.7c2.79-3.62,6.51-5.44,11.17-5.44,2.6,0,4.92.65,6.98,1.95,2.06,1.3,3.62,3.05,4.7,5.25,1.52-2.35,3.32-4.14,5.4-5.36,2.08-1.22,4.47-1.84,7.16-1.84s4.87.58,6.83,1.73c1.96,1.15,3.49,2.77,4.59,4.85,1.1,2.08,1.65,4.5,1.65,7.24v23.07h-3.23v-22.19c0-3.63-.93-6.48-2.79-8.56-1.86-2.08-4.46-3.12-7.79-3.12-2.4,0-4.51.62-6.32,1.87-1.81,1.25-3.33,2.95-4.56,5.11.15.64.26,1.26.33,1.87.07.61.11,1.26.11,1.95v23.07h-3.23v-22.19c0-3.63-.93-6.48-2.79-8.56-1.86-2.08-4.46-3.12-7.79-3.12-2.25,0-4.25.55-5.99,1.65-1.74,1.1-3.22,2.66-4.45,4.67v27.56h-3.23Z"/><path class="cls-1" d="M548.26,759.99c-3.33,0-6.37-.83-9.11-2.5-2.74-1.66-4.91-3.93-6.5-6.8-1.59-2.87-2.39-6.04-2.39-9.52s.8-6.71,2.39-9.55c1.59-2.84,3.76-5.09,6.5-6.76,2.74-1.66,5.78-2.5,9.11-2.5s6.43.83,9.15,2.5c2.72,1.67,4.87,3.92,6.47,6.76,1.59,2.84,2.39,6.03,2.39,9.55s-.8,6.65-2.39,9.52c-1.59,2.87-3.75,5.13-6.47,6.8-2.72,1.67-5.77,2.5-9.15,2.5ZM548.26,756.91c2.74,0,5.23-.7,7.46-2.09,2.23-1.4,3.99-3.28,5.29-5.66,1.3-2.38,1.95-5.03,1.95-7.97s-.65-5.6-1.95-7.97c-1.3-2.38-3.06-4.26-5.29-5.66-2.23-1.4-4.72-2.09-7.46-2.09s-5.23.7-7.46,2.09c-2.23,1.4-3.99,3.28-5.29,5.66-1.3,2.38-1.95,5.03-1.95,7.97s.65,5.6,1.95,7.97c1.3,2.38,3.06,4.26,5.29,5.66,2.23,1.4,4.71,2.09,7.46,2.09ZM545.69,715.46l7.05-8.08h4.92l-8.74,8.08h-3.23Z"/><path class="cls-1" d="M580.74,759.26l-15.8-36.15h3.53l13.82,32.04,13.74-32.04h3.38l-15.73,36.15h-2.94Z"/><path class="cls-1" d="M616.09,759.99c-3.33,0-6.37-.83-9.11-2.5-2.74-1.66-4.91-3.92-6.5-6.76-1.59-2.84-2.39-6.03-2.39-9.55s.77-6.71,2.31-9.55c1.54-2.84,3.66-5.09,6.36-6.76,2.69-1.66,5.71-2.5,9.04-2.5,3.13,0,5.93.83,8.38,2.5,2.45,1.67,4.4,3.88,5.84,6.65,1.44,2.77,2.17,5.84,2.17,9.22v1.32h-30.79c.15,2.79.88,5.3,2.2,7.53,1.32,2.23,3.07,4,5.25,5.33,2.18,1.32,4.59,1.98,7.24,1.98,2.06,0,4.09-.33,6.1-.99,2.01-.66,3.72-1.55,5.14-2.68l1.91,2.57c-1.96,1.42-4.04,2.47-6.25,3.16-2.2.69-4.51,1.03-6.91,1.03ZM601.54,738.98h27.19c-.25-2.5-.96-4.76-2.13-6.8-1.18-2.03-2.7-3.66-4.56-4.89-1.86-1.22-3.97-1.84-6.32-1.84-2.5,0-4.77.59-6.8,1.76-2.03,1.18-3.7,2.78-5,4.81-1.3,2.03-2.09,4.35-2.39,6.94Z"/><path class="cls-1" d="M638.06,714.95c-.78,0-1.45-.27-1.98-.81-.54-.54-.81-1.2-.81-1.98s.27-1.44.81-1.98c.54-.54,1.2-.81,1.98-.81.83,0,1.51.27,2.02.81.51.54.77,1.2.77,1.98s-.26,1.45-.77,1.98c-.51.54-1.19.81-2.02.81ZM636.45,759.26v-36.15h3.23v36.15h-3.23Z"/><path class="cls-1" d="M656.29,759.99c-2.79,0-5.45-.5-7.97-1.51-2.52-1-4.64-2.46-6.36-4.37l2.5-2.06c1.47,1.52,3.24,2.72,5.33,3.6,2.08.88,4.25,1.32,6.5,1.32,3.33,0,6.01-.72,8.05-2.17,2.03-1.44,3.05-3.32,3.05-5.62,0-1.71-.61-3.13-1.84-4.26-1.22-1.13-3.21-1.86-5.95-2.2l-5.95-.73c-3.43-.39-6.04-1.4-7.83-3.01-1.79-1.62-2.68-3.77-2.68-6.47,0-2.01.54-3.77,1.62-5.29,1.08-1.52,2.58-2.71,4.52-3.56,1.93-.86,4.18-1.29,6.72-1.29s4.8.37,7.05,1.1c2.25.73,4.53,1.94,6.83,3.6l-1.91,2.65c-2.06-1.47-4.03-2.56-5.92-3.27-1.89-.71-3.88-1.07-5.99-1.07-2.84,0-5.17.6-6.98,1.8-1.81,1.2-2.72,2.98-2.72,5.33,0,1.76.6,3.19,1.8,4.26,1.2,1.08,3.15,1.79,5.84,2.13l5.88.73c3.63.44,6.32,1.5,8.08,3.16,1.76,1.67,2.65,3.8,2.65,6.39,0,2.06-.61,3.91-1.84,5.55-1.22,1.64-2.9,2.93-5.03,3.86-2.13.93-4.62,1.4-7.46,1.4Z"/><path class="cls-2" d="M602.2,684.27h1.32v-80.73h13.23v92.64h-21.84l-58.5-80.73h-1.32v80.73h-13.23v-92.64h21.84l58.5,80.73Z"/><path class="cls-2" d="M481.24,664.15c15.09-2.51,24.75-13.1,24.75-30.31,0-19.06-12.71-30.31-31.76-30.31h-63.4v92.64h13.23v-31.5h.04v-11.91h-.04v-37.32h51.35c10.46,0,17.34,6.88,17.34,17.34v2.65c0,10.46-6.88,17.34-17.34,17.34h-37.59v11.91h28.06l25.41,31.5h16.01l-26.07-32.03Z"/><rect class="cls-2" x="664.94" y="643.9" width="50.55" height="11.91"/><polygon class="cls-2" points="637.93 603.53 637.93 696.18 651.17 696.18 651.17 655.81 651.22 655.81 651.22 643.9 651.17 643.9 651.17 615.44 723.03 615.44 723.03 603.53 637.93 603.53"/><rect class="cls-1" x="595.64" y="433.6" width=".96" height="46.33"/><rect class="cls-1" x="588.69" y="433.6" width=".96" height="46.33"/><rect class="cls-1" x="581.73" y="433.6" width=".96" height="46.33"/><rect class="cls-1" x="574.78" y="433.6" width=".96" height="46.33"/><rect class="cls-1" x="567.82" y="433.6" width=".96" height="46.33"/><rect class="cls-1" x="560.87" y="433.6" width=".96" height="46.33"/><rect class="cls-1" x="553.91" y="433.6" width=".96" height="46.33"/><rect class="cls-1" x="546.96" y="433.6" width=".96" height="46.33"/><rect class="cls-1" x="540" y="433.6" width=".96" height="46.33"/><rect class="cls-1" x="533.05" y="433.6" width=".96" height="46.33"/><polygon class="cls-1" points="520.09 476.12 520.09 430 519.35 429.7 519.13 429.7 519.13 475.73 520.09 476.12"/><polygon class="cls-1" points="513.14 427.2 512.31 426.87 512.18 426.82 512.18 472.85 513.14 473.25 513.14 427.2"/><polygon class="cls-1" points="506.18 470.38 506.18 424.4 505.22 424.02 505.22 469.98 506.18 470.38"/><polygon class="cls-1" points="499.23 467.5 499.23 421.6 498.27 421.22 498.27 467.11 499.23 467.5"/><polygon class="cls-1" points="492.27 464.63 492.27 418.8 491.31 418.42 491.31 464.23 492.27 464.63"/><polygon class="cls-1" points="485.32 461.75 485.32 416 484.36 415.62 484.36 461.36 485.32 461.75"/><polygon class="cls-1" points="478.36 458.88 478.36 413.2 477.73 412.95 477.4 412.95 477.4 458.48 478.36 458.88"/><polygon class="cls-1" points="526.63 432.63 526.09 432.42 526.09 478.6 526.97 478.97 527.05 478.97 527.05 432.63 526.63 432.63"/><polygon class="cls-1" points="599.18 564.79 599.18 565.79 600.11 565.79 600.11 565.23 599.18 564.79"/><polygon class="cls-1" points="592.41 561.65 592.41 565.79 593.34 565.79 593.34 562.08 592.41 561.65"/><polygon class="cls-1" points="585.65 558.51 585.65 565.79 586.58 565.79 586.58 558.94 585.65 558.51"/><polygon class="cls-1" points="578.88 555.37 578.88 565.79 579.81 565.79 579.81 555.8 578.88 555.37"/><polygon class="cls-1" points="572.11 552.23 572.11 565.79 573.05 565.79 573.05 552.66 572.11 552.23"/><polygon class="cls-1" points="578.88 521.07 578.88 521.84 579.81 522.28 579.81 521.07 578.88 521.07"/><polygon class="cls-1" points="585.65 521.07 585.65 525.06 586.58 525.51 586.58 521.07 585.65 521.07"/><polygon class="cls-1" points="592.41 521.07 592.41 528.29 593.34 528.73 593.34 521.07 592.41 521.07"/><polygon class="cls-1" points="599.18 521.07 599.18 531.51 600.11 531.96 600.11 521.07 599.18 521.07"/><polygon class="cls-1" points="605.94 521.07 605.94 534.74 606.87 535.18 606.87 521.07 605.94 521.07"/><polygon class="cls-1" points="612.71 521.07 612.71 537.96 613.64 538.4 613.64 521.07 612.71 521.07"/><polygon class="cls-1" points="619.47 521.07 619.47 541.18 620.4 541.63 620.4 521.07 619.47 521.07"/><polygon class="cls-1" points="626.24 521.07 626.24 544.41 627.17 544.85 627.17 521.07 626.24 521.07"/><polygon class="cls-1" points="633 521.07 633 547.63 633.93 548.07 633.93 521.07 633 521.07"/><polygon class="cls-1" points="640.7 521.07 639.77 521.07 639.77 550.85 640.7 551.3 640.7 521.07"/><polygon class="cls-1" points="647.46 521.07 646.53 521.07 646.53 554.08 647.44 554.51 647.46 554.52 647.46 521.07"/><polygon class="cls-1" points="653.3 521.07 653.3 557.3 654.23 557.75 654.23 521.07 653.3 521.07"/><polygon class="cls-1" points="523.56 397.01 523.56 428.03 472.96 405.49 472.96 373.87 523.56 397.01"/><polygon class="cls-1" points="523.56 483.54 523.56 564.37 472.96 537.06 472.96 460.39 523.56 483.54"/><polygon class="cls-1" points="660.89 566.09 566.33 517.57 658.62 517.57 658.62 484.19 658.62 397.68 647 397.68 527.29 397.68 527.29 429.04 602.18 429.04 602.18 484.19 563.95 484.19 527.29 484.19 527.29 484.21 527.29 517.51 527.29 517.57 527.29 565.66 527.29 566.09 563.95 566.09 563.95 543.65 607.7 566.09 608.18 566.09 608.23 566.12 652.81 566.12 652.75 566.09 660.89 566.09"/></svg>