<?xml version="1.0" encoding="UTF-8"?><svg id="Camada_1" xmlns="http://www.w3.org/2000/svg" viewBox="0 0 1133.86 1133.86"><defs><style>.cls-1{fill:#fdf2ec;}.cls-2{fill:#003636;}</style></defs><path class="cls-1" d="M711.64,587.98h1.32v-80.73h13.23v92.64h-21.84l-58.5-80.73h-1.32v80.73h-13.23v-92.64h21.84l58.5,80.73Z"/><path class="cls-1" d="M590.67,567.86c15.09-2.51,24.75-13.1,24.75-30.31,0-19.06-12.71-30.31-31.76-30.31h-63.4v92.64h13.23v-31.5h.04v-11.91h-.04v-37.32h51.35c10.46,0,17.34,6.88,17.34,17.34v2.65c0,10.46-6.88,17.34-17.34,17.34h-37.59v11.91h28.06l25.41,31.5h16.01l-26.07-32.03Z"/><rect class="cls-1" x="774.37" y="547.61" width="50.55" height="11.91"/><polygon class="cls-1" points="747.37 507.25 747.37 599.89 760.6 599.89 760.6 559.52 760.66 559.52 760.66 547.61 760.6 547.61 760.6 519.16 832.47 519.16 832.47 507.25 747.37 507.25"/><path class="cls-2" d="M520.26,662.97v-51.44h3.38v51.44h-3.38Z"/><path class="cls-2" d="M531.06,662.97v-36.15h3.23v4.7c2.79-3.62,6.51-5.44,11.17-5.44,2.6,0,4.92.65,6.98,1.95,2.06,1.3,3.62,3.05,4.7,5.25,1.52-2.35,3.32-4.14,5.4-5.36,2.08-1.22,4.47-1.84,7.16-1.84s4.87.58,6.83,1.73c1.96,1.15,3.49,2.77,4.59,4.85,1.1,2.08,1.65,4.5,1.65,7.24v23.07h-3.23v-22.19c0-3.63-.93-6.48-2.79-8.56-1.86-2.08-4.46-3.12-7.79-3.12-2.4,0-4.51.62-6.32,1.87-1.81,1.25-3.33,2.95-4.56,5.11.15.64.26,1.26.33,1.87.07.61.11,1.26.11,1.95v23.07h-3.23v-22.19c0-3.63-.93-6.48-2.79-8.56-1.86-2.08-4.46-3.12-7.79-3.12-2.25,0-4.25.55-5.99,1.65-1.74,1.1-3.22,2.66-4.45,4.67v27.56h-3.23Z"/><path class="cls-2" d="M605.28,663.71c-3.33,0-6.37-.83-9.11-2.5-2.74-1.66-4.91-3.93-6.5-6.8-1.59-2.87-2.39-6.04-2.39-9.52s.8-6.71,2.39-9.55c1.59-2.84,3.76-5.09,6.5-6.76,2.74-1.66,5.78-2.5,9.11-2.5s6.43.83,9.15,2.5c2.72,1.67,4.87,3.92,6.47,6.76,1.59,2.84,2.39,6.03,2.39,9.55s-.8,6.65-2.39,9.52c-1.59,2.87-3.75,5.13-6.47,6.8-2.72,1.67-5.77,2.5-9.15,2.5ZM605.28,660.62c2.74,0,5.23-.7,7.46-2.09,2.23-1.4,3.99-3.28,5.29-5.66,1.3-2.38,1.95-5.03,1.95-7.97s-.65-5.6-1.95-7.97c-1.3-2.38-3.06-4.26-5.29-5.66-2.23-1.4-4.72-2.09-7.46-2.09s-5.23.7-7.46,2.09c-2.23,1.4-3.99,3.28-5.29,5.66-1.3,2.38-1.95,5.03-1.95,7.97s.65,5.6,1.95,7.97c1.3,2.38,3.06,4.26,5.29,5.66,2.23,1.4,4.71,2.09,7.46,2.09ZM602.71,619.17l7.05-8.08h4.92l-8.74,8.08h-3.23Z"/><path class="cls-2" d="M637.76,662.97l-15.8-36.15h3.53l13.82,32.04,13.74-32.04h3.38l-15.73,36.15h-2.94Z"/><path class="cls-2" d="M673.11,663.71c-3.33,0-6.37-.83-9.11-2.5-2.74-1.66-4.91-3.92-6.5-6.76-1.59-2.84-2.39-6.03-2.39-9.55s.77-6.71,2.31-9.55c1.54-2.84,3.66-5.09,6.36-6.76,2.69-1.66,5.71-2.5,9.04-2.5,3.13,0,5.93.83,8.38,2.5,2.45,1.67,4.4,3.88,5.84,6.65,1.44,2.77,2.17,5.84,2.17,9.22v1.32h-30.79c.15,2.79.88,5.3,2.2,7.53,1.32,2.23,3.07,4,5.25,5.33,2.18,1.32,4.59,1.98,7.24,1.98,2.06,0,4.09-.33,6.1-.99,2.01-.66,3.72-1.55,5.14-2.68l1.91,2.57c-1.96,1.42-4.04,2.47-6.25,3.16-2.2.69-4.51,1.03-6.91,1.03ZM658.56,642.69h27.19c-.25-2.5-.96-4.76-2.13-6.8-1.18-2.03-2.7-3.66-4.56-4.89-1.86-1.22-3.97-1.84-6.32-1.84-2.5,0-4.77.59-6.8,1.76-2.03,1.18-3.7,2.78-5,4.81-1.3,2.03-2.09,4.35-2.39,6.94Z"/><path class="cls-2" d="M695.08,618.66c-.78,0-1.45-.27-1.98-.81-.54-.54-.81-1.2-.81-1.98s.27-1.44.81-1.98c.54-.54,1.2-.81,1.98-.81.83,0,1.51.27,2.02.81.51.54.77,1.2.77,1.98s-.26,1.45-.77,1.98c-.51.54-1.19.81-2.02.81ZM693.47,662.97v-36.15h3.23v36.15h-3.23Z"/><path class="cls-2" d="M713.31,663.71c-2.79,0-5.45-.5-7.97-1.51-2.52-1-4.64-2.46-6.36-4.37l2.5-2.06c1.47,1.52,3.24,2.72,5.33,3.6,2.08.88,4.25,1.32,6.5,1.32,3.33,0,6.01-.72,8.05-2.17,2.03-1.44,3.05-3.32,3.05-5.62,0-1.71-.61-3.13-1.84-4.26-1.22-1.13-3.21-1.86-5.95-2.2l-5.95-.73c-3.43-.39-6.04-1.4-7.83-3.01-1.79-1.62-2.68-3.77-2.68-6.47,0-2.01.54-3.77,1.62-5.29,1.08-1.52,2.58-2.71,4.52-3.56,1.93-.86,4.18-1.29,6.72-1.29s4.8.37,7.05,1.1c2.25.73,4.53,1.94,6.83,3.6l-1.91,2.65c-2.06-1.47-4.03-2.56-5.92-3.27-1.89-.71-3.88-1.07-5.99-1.07-2.84,0-5.17.6-6.98,1.8-1.81,1.2-2.72,2.98-2.72,5.33,0,1.76.6,3.19,1.8,4.26,1.2,1.08,3.15,1.79,5.84,2.13l5.88.73c3.63.44,6.32,1.5,8.08,3.16,1.76,1.67,2.65,3.8,2.65,6.39,0,2.06-.61,3.91-1.84,5.55-1.22,1.64-2.9,2.93-5.03,3.86-2.13.93-4.62,1.4-7.46,1.4Z"/><rect class="cls-2" x="424.07" y="529.88" width=".96" height="46.33"/><rect class="cls-2" x="417.12" y="529.88" width=".96" height="46.33"/><rect class="cls-2" x="410.16" y="529.88" width=".96" height="46.33"/><rect class="cls-2" x="403.2" y="529.88" width=".96" height="46.33"/><rect class="cls-2" x="396.25" y="529.88" width=".96" height="46.33"/><rect class="cls-2" x="389.29" y="529.88" width=".96" height="46.33"/><rect class="cls-2" x="382.34" y="529.88" width=".96" height="46.33"/><rect class="cls-2" x="375.38" y="529.88" width=".96" height="46.33"/><rect class="cls-2" x="368.43" y="529.88" width=".96" height="46.33"/><rect class="cls-2" x="361.47" y="529.88" width=".96" height="46.33"/><polygon class="cls-2" points="348.52 572.41 348.52 526.29 347.78 525.99 347.56 525.99 347.56 572.02 348.52 572.41"/><polygon class="cls-2" points="341.56 523.49 340.74 523.16 340.61 523.1 340.61 569.14 341.56 569.54 341.56 523.49"/><polygon class="cls-2" points="334.61 566.66 334.61 520.69 333.65 520.3 333.65 566.27 334.61 566.66"/><polygon class="cls-2" points="327.65 563.79 327.65 517.89 326.7 517.5 326.7 563.39 327.65 563.79"/><polygon class="cls-2" points="320.7 560.91 320.7 515.09 319.74 514.7 319.74 560.52 320.7 560.91"/><polygon class="cls-2" points="313.74 558.04 313.74 512.29 312.79 511.9 312.79 557.64 313.74 558.04"/><polygon class="cls-2" points="306.79 555.16 306.79 509.49 306.16 509.23 305.83 509.23 305.83 554.77 306.79 555.16"/><polygon class="cls-2" points="355.06 528.92 354.52 528.7 354.52 574.89 355.4 575.25 355.47 575.25 355.47 528.92 355.06 528.92"/><polygon class="cls-2" points="427.6 661.08 427.6 662.08 428.54 662.08 428.54 661.51 427.6 661.08"/><polygon class="cls-2" points="420.84 657.94 420.84 662.08 421.77 662.08 421.77 658.37 420.84 657.94"/><polygon class="cls-2" points="414.07 654.8 414.07 662.08 415 662.08 415 655.23 414.07 654.8"/><polygon class="cls-2" points="407.31 651.65 407.31 662.08 408.24 662.08 408.24 652.09 407.31 651.65"/><polygon class="cls-2" points="400.54 648.51 400.54 662.08 401.47 662.08 401.47 648.94 400.54 648.51"/><polygon class="cls-2" points="407.31 617.36 407.31 618.13 408.24 618.57 408.24 617.36 407.31 617.36"/><polygon class="cls-2" points="414.07 617.36 414.07 621.35 415 621.79 415 617.36 414.07 617.36"/><polygon class="cls-2" points="420.84 617.36 420.84 624.57 421.77 625.02 421.77 617.36 420.84 617.36"/><polygon class="cls-2" points="427.6 617.36 427.6 627.8 428.54 628.24 428.54 617.36 427.6 617.36"/><polygon class="cls-2" points="434.37 617.36 434.37 631.02 435.3 631.47 435.3 617.36 434.37 617.36"/><polygon class="cls-2" points="441.13 617.36 441.13 634.25 442.07 634.69 442.07 617.36 441.13 617.36"/><polygon class="cls-2" points="447.9 617.36 447.9 637.47 448.83 637.91 448.83 617.36 447.9 617.36"/><polygon class="cls-2" points="454.66 617.36 454.66 640.69 455.6 641.14 455.6 617.36 454.66 617.36"/><polygon class="cls-2" points="461.43 617.36 461.43 643.92 462.36 644.36 462.36 617.36 461.43 617.36"/><polygon class="cls-2" points="469.13 617.36 468.19 617.36 468.19 647.14 469.13 647.58 469.13 617.36"/><polygon class="cls-2" points="475.89 617.36 474.96 617.36 474.96 650.36 475.86 650.79 475.89 650.81 475.89 617.36"/><polygon class="cls-2" points="481.73 617.36 481.73 653.59 482.66 654.03 482.66 617.36 481.73 617.36"/><polygon class="cls-2" points="351.99 493.3 351.99 524.32 301.39 501.77 301.39 470.15 351.99 493.3"/><polygon class="cls-2" points="351.99 579.82 351.99 660.66 301.39 633.35 301.39 556.68 351.99 579.82"/><polygon class="cls-2" points="489.32 662.38 394.76 613.86 487.05 613.86 487.05 580.48 487.05 493.97 475.43 493.97 355.72 493.97 355.72 525.33 430.61 525.33 430.61 580.48 392.38 580.48 355.72 580.48 355.72 580.49 355.72 613.79 355.72 613.86 355.72 661.94 355.72 662.38 392.38 662.38 392.38 639.93 436.13 662.38 436.61 662.38 436.65 662.41 481.24 662.41 481.18 662.38 489.32 662.38"/></svg>